<?xml version="1.0" encoding="UTF-8" standalone="no"?>
<svg width="389px" height="618px" viewBox="0 0 389 618" version="1.1" xmlns="http://www.w3.org/2000/svg" xmlns:xlink="http://www.w3.org/1999/xlink" xmlns:sketch="http://www.bohemiancoding.com/sketch/ns">
    <!-- Generator: Sketch 3.5.2 (25235) - http://www.bohemiancoding.com/sketch -->
    <title>about_box</title>
    <desc>Created with Sketch.</desc>
    <defs>
        <path id="path-1" d="M0,0.0966666667 L28.8675611,0.0966666667 L28.8675611,28.7387387 L0,28.7387387 L0,0.0966666667 Z"></path>
        <path id="path-3" d="M0,0.0971891892 L13.4152476,0.0971891892 L13.4152476,28.7387387 L0,28.7387387 L0,0.0971891892 Z"></path>
    </defs>
    <g id="Page-1" stroke="none" stroke-width="1" fill="none" fill-rule="evenodd" sketch:type="MSPage">
        <g id="screen2-copy-3" sketch:type="MSArtboardGroup" transform="translate(-52.000000, -271.000000)">
            <g id="about_box" sketch:type="MSLayerGroup" transform="translate(52.000000, 267.000000)">
                <text id="Add-assets-to-Creati" sketch:type="MSTextLayer" font-family="Gentium Book Basic" font-size="21" font-weight="normal" fill="#FE6602">
                    <tspan x="49" y="68">Add assets to Creative Cloud </tspan>
                    <tspan x="49" y="92">Libraries on your computer using </tspan>
                    <tspan x="49" y="116">a Creative Cloud desktop </tspan>
                    <tspan x="49" y="140">application. Drag assets to the </tspan>
                    <tspan x="49" y="164">Libraries panel in the desktop </tspan>
                    <tspan x="49" y="188">application. You can also view </tspan>
                    <tspan x="49" y="212">and browse through the libraries </tspan>
                    <tspan x="49" y="236">on the </tspan>
                    <tspan x="110.226074" y="236">Creative Cloud Assets</tspan>
                    <tspan x="298.959473" y="236"> page.</tspan>
                    <tspan x="49" y="260">See the </tspan>
                    <tspan x="117.680664" y="260">learning resources for </tspan>
                    <tspan x="49" y="284">your Creative Cloud desktop </tspan>
                    <tspan x="49" y="308">application</tspan>
                    <tspan x="148.432129" y="308"> for more information </tspan>
                    <tspan x="49" y="332">on using Libraries with it.</tspan>
                </text>
                <g id="Page-1-Copy" transform="translate(49.000000, 593.000000)">
                    <mask id="mask-2" sketch:name="Clip 2" fill="white">
                        <use xlink:href="#path-1"></use>
                    </mask>
                    <g id="Clip-2"></g>
                    <path d="M26.0559574,23.2043369 C26.0559574,24.7186072 24.8136,25.9491477 23.2876439,25.9491477 L5.57812665,25.9491477 C4.05217053,25.9491477 2.81165643,24.7186072 2.81165643,23.2043369 L2.81165643,11.4786703 L7.12093542,11.4786703 C6.74886019,12.3868144 6.54030846,13.3788234 6.54030846,14.4175982 C6.54030846,18.7365081 10.0812113,22.2496883 14.4336752,22.2496883 C18.7864025,22.2496883 22.3273053,18.7365081 22.3273053,14.4175982 C22.3273053,13.3788234 22.1169103,12.3868144 21.7445718,11.4786703 L26.0559574,11.4786703 L26.0559574,23.2043369 Z M10.314252,11.4786703 C11.2387787,10.2089405 12.7386658,9.37734595 14.4336752,9.37734595 C16.128948,9.37734595 17.6288351,10.2089405 18.5533618,11.4786703 C19.1547912,12.3066072 19.5158069,13.3210847 19.5158069,14.4175982 C19.5158069,17.196373 17.2341141,19.4581117 14.4336752,19.4581117 C11.6316564,19.4581117 9.3518069,17.196373 9.3518069,14.4175982 C9.3518069,13.3210847 9.71282257,12.3066072 10.314252,11.4786703 L10.314252,11.4786703 Z M24.8889103,3.39916577 L25.5261517,3.39524685 L25.5261517,4.0274991 L25.5261517,8.24921982 L20.6509918,8.26594054 L20.6338759,3.41222883 L24.8889103,3.39916577 Z M23.2876439,0.0968234234 L5.57812665,0.0968234234 C2.50146207,0.0968234234 -0.000105329154,2.57854414 -0.000105329154,5.63112072 L-0.000105329154,11.4786703 L-0.000105329154,23.2043369 C-0.000105329154,26.2569135 2.50146207,28.7386342 5.57812665,28.7386342 L23.2876439,28.7386342 C26.3643085,28.7386342 28.8674558,26.2569135 28.8674558,23.2043369 L28.8674558,11.4786703 L28.8674558,5.63112072 C28.8674558,2.57854414 26.3643085,0.0968234234 23.2876439,0.0968234234 L23.2876439,0.0968234234 Z" id="Fill-1" fill="#FE6602" sketch:type="MSShapeGroup" mask="url(#mask-2)"></path>
                </g>
                <g id="Page-1-Copy-2" transform="translate(181.000000, 593.000000)">
                    <mask id="mask-4" sketch:name="Clip 2" fill="white">
                        <use xlink:href="#path-3"></use>
                    </mask>
                    <g id="Clip-2"></g>
                    <path d="M2.8509442,28.7387387 L8.84627962,28.7387387 L8.84627962,14.4273694 L12.8906558,14.4273694 L13.415195,9.37222523 L8.84627962,9.37222523 L8.84627962,6.39802703 C8.84627962,5.28296396 9.59227335,5.0217027 10.1168125,5.0217027 L13.3417279,5.0217027 L13.3417279,0.11390991 L8.90078746,0.0971891892 C3.97111975,0.0971891892 2.8509442,3.75745946 2.8509442,6.09966667 L2.8509442,9.37222523 L-5.26645768e-05,9.37222523 L-5.26645768e-05,14.4273694 L2.8509442,14.4273694 L2.8509442,28.7387387 Z" id="Fill-1" fill="#FE6602" sketch:type="MSShapeGroup" mask="url(#mask-4)"></path>
                </g>
                <path d="M325.683953,607.988654 L319.550237,594.474403 L307.118341,594.474403 L300.860603,607.988654 L307.827426,607.988654 L309.906149,612.217877 L316.665369,612.217877 L318.744091,607.988654 L325.683953,607.988654 Z M328.67397,608.55041 L328.67397,620.678996 L298,620.678996 L298,608.234757 L305.519531,592 L321.162528,592 L328.67397,608.55041 Z" id="Page-1-Copy-3" fill="#FE6602" sketch:type="MSShapeGroup"></path>
                <path d="M0.5,561.5 L388.5,561.5" id="Line-Copy-9" stroke="#FE6602" stroke-linecap="square" sketch:type="MSShapeGroup"></path>
                <text id="MOI-HELSINKI" sketch:type="MSTextLayer" font-family="Karla" font-size="20" font-weight="bold" letter-spacing="3.83333325" fill="#FE6602">
                    <tspan x="49" y="18">MOI HELSINK</tspan>
                    <tspan x="215.426666" y="18" letter-spacing="3.19444442">I</tspan>
                </text>
            </g>
        </g>
    </g>
</svg>