<?xml version="1.0" encoding="UTF-8" standalone="no"?>
<svg width="315px" height="62px" viewBox="0 0 315 62" version="1.1" xmlns="http://www.w3.org/2000/svg" xmlns:xlink="http://www.w3.org/1999/xlink" xmlns:sketch="http://www.bohemiancoding.com/sketch/ns">
    <!-- Generator: Sketch 3.5.2 (25235) - http://www.bohemiancoding.com/sketch -->
    <title>filter_time</title>
    <desc>Created with Sketch.</desc>
    <defs></defs>
    <g id="Page-1" stroke="none" stroke-width="1" fill="none" fill-rule="evenodd" sketch:type="MSPage">
        <g id="screen2-copy-3" sketch:type="MSArtboardGroup" transform="translate(-1524.000000, -401.000000)">
            <g id="filter_time" sketch:type="MSLayerGroup" transform="translate(1520.000000, 394.000000)">
                <path d="M9.47426817,54.3 L311.108822,54.3" id="Line-Copy-6" stroke="#FE6602" stroke-width="2.6" stroke-linecap="square" sketch:type="MSShapeGroup"></path>
                <rect id="Rectangle-5" fill="#FE6602" sketch:type="MSShapeGroup" x="65" y="51" width="180.221903" height="7.58829066"></rect>
                <path d="M54.382436,66.764872 C60.6687818,66.764872 65.764872,61.6687818 65.764872,55.382436 C65.764872,49.0960902 60.6687818,44 54.382436,44 C48.0960902,44 43,49.0960902 43,55.382436 C43,61.6687818 48.0960902,66.764872 54.382436,66.764872 Z" id="Oval-8" stroke="#FE6602" stroke-width="2.6" fill="#FFFFFF" sketch:type="MSShapeGroup"></path>
                <path d="M256.382436,66.764872 C262.668782,66.764872 267.764872,61.6687818 267.764872,55.382436 C267.764872,49.0960902 262.668782,44 256.382436,44 C250.09609,44 245,49.0960902 245,55.382436 C245,61.6687818 250.09609,66.764872 256.382436,66.764872 Z" id="Oval-8-Copy" stroke="#FE6602" stroke-width="2.6" fill="#FFFFFF" sketch:type="MSShapeGroup"></path>
                <text id="09:00" sketch:type="MSTextLayer" font-family="Karla" font-size="25" font-weight="normal" sketch:alignment="middle" fill="#FE6602">
                    <tspan x="3.31184211" y="23">09:00</tspan>
                </text>
                <text id="22:00" sketch:type="MSTextLayer" font-family="Karla" font-size="25" font-weight="normal" sketch:alignment="middle" fill="#FE6602">
                    <tspan x="255.499342" y="23">22:00</tspan>
                </text>
            </g>
        </g>
    </g>
</svg>