<?xml version="1.0" encoding="UTF-8" standalone="no"?>
<svg width="71px" height="71px" viewBox="0 0 71 71" version="1.1" xmlns="http://www.w3.org/2000/svg" xmlns:xlink="http://www.w3.org/1999/xlink" xmlns:sketch="http://www.bohemiancoding.com/sketch/ns">
    <!-- Generator: Sketch 3.5.2 (25235) - http://www.bohemiancoding.com/sketch -->
    <title>filters</title>
    <desc>Created with Sketch.</desc>
    <defs>
        <path id="path-1" d="M0,0.263 L70.737,0.263 L70.737,71 L0,71"></path>
    </defs>
    <g id="Page-1" stroke="none" stroke-width="1" fill="none" fill-rule="evenodd" sketch:type="MSPage">
        <g id="screen2-copy-3" sketch:type="MSArtboardGroup" transform="translate(-1653.000000, -21.000000)">
            <g id="filters" sketch:type="MSLayerGroup" transform="translate(1653.000000, 21.000000)">
                <g id="Group-3">
                    <mask id="mask-2" sketch:name="Clip 2" fill="white">
                        <use xlink:href="#path-1"></use>
                    </mask>
                    <g id="Clip-2"></g>
                    <path d="M35.3685,68.4185 C17.2895,68.4185 2.5815,53.7095 2.5815,35.6315 C2.5815,17.5535 17.2895,2.8445 35.3685,2.8445 C53.4475,2.8445 68.1555,17.5535 68.1555,35.6315 C68.1555,53.7095 53.4475,68.4185 35.3685,68.4185 M35.3685,0.2635 C15.8665,0.2635 -0.0005,16.1295 -0.0005,35.6315 C-0.0005,55.1335 15.8665,71.0005 35.3685,71.0005 C54.8705,71.0005 70.7375,55.1335 70.7375,35.6315 C70.7375,16.1295 54.8705,0.2635 35.3685,0.2635" id="Fill-1" fill="#FE6602" sketch:type="MSShapeGroup" mask="url(#mask-2)"></path>
                </g>
                <path d="M41.2353,27.1549 C39.9473,27.1549 38.9003,26.1069 38.9003,24.8199 C38.9003,23.5329 39.9473,22.4849 41.2353,22.4849 C42.5233,22.4849 43.5703,23.5329 43.5703,24.8199 C43.5703,26.1069 42.5233,27.1549 41.2353,27.1549 L41.2353,27.1549 Z M56.7413,23.5199 L45.9743,23.5199 C45.3993,21.4319 43.5033,19.8849 41.2353,19.8849 C38.9673,19.8849 37.0713,21.4319 36.4963,23.5199 L13.9963,23.5199 L13.9963,26.1199 L36.4963,26.1199 C37.0713,28.2079 38.9673,29.7549 41.2353,29.7549 C43.5033,29.7549 45.3993,28.2079 45.9743,26.1199 L56.7413,26.1199 L56.7413,23.5199 Z" id="Fill-4" fill="#FE6602" sketch:type="MSShapeGroup"></path>
                <path d="M41.2353,51.2288 C39.9473,51.2288 38.9003,50.1808 38.9003,48.8938 C38.9003,47.6068 39.9473,46.5588 41.2353,46.5588 C42.5233,46.5588 43.5703,47.6068 43.5703,48.8938 C43.5703,50.1808 42.5233,51.2288 41.2353,51.2288 L41.2353,51.2288 Z M56.7413,47.5938 L45.9743,47.5938 C45.3993,45.5058 43.5033,43.9588 41.2353,43.9588 C38.9673,43.9588 37.0713,45.5058 36.4963,47.5938 L13.9963,47.5938 L13.9963,50.1938 L36.4963,50.1938 C37.0713,52.2818 38.9673,53.8288 41.2353,53.8288 C43.5033,53.8288 45.3993,52.2818 45.9743,50.1938 L56.7413,50.1938 L56.7413,47.5938 Z" id="Fill-6" fill="#FE6602" sketch:type="MSShapeGroup"></path>
                <path d="M27.1664,37.2216 C27.1664,35.9346 28.2144,34.8866 29.5014,34.8866 C30.7894,34.8866 31.8364,35.9346 31.8364,37.2216 C31.8364,38.5086 30.7894,39.5566 29.5014,39.5566 C28.2144,39.5566 27.1664,38.5086 27.1664,37.2216 L27.1664,37.2216 Z M13.9964,38.5216 L24.7624,38.5216 C25.3374,40.6096 27.2334,42.1566 29.5014,42.1566 C31.7704,42.1566 33.6664,40.6096 34.2404,38.5216 L56.7414,38.5216 L56.7414,35.9216 L34.2404,35.9216 C33.6664,33.8336 31.7704,32.2866 29.5014,32.2866 C27.2334,32.2866 25.3374,33.8336 24.7624,35.9216 L13.9964,35.9216 L13.9964,38.5216 Z" id="Fill-8" fill="#FE6602" sketch:type="MSShapeGroup"></path>
            </g>
        </g>
    </g>
</svg>