<?xml version="1.0" encoding="UTF-8" standalone="no"?>
<svg width="72px" height="72px" viewBox="0 0 72 72" version="1.1" xmlns="http://www.w3.org/2000/svg" xmlns:xlink="http://www.w3.org/1999/xlink" xmlns:sketch="http://www.bohemiancoding.com/sketch/ns">
    <title>logo@2x</title>
    <desc>Moi Helsinki Event Calendar</desc>
    <defs>
        <path id="path-1" d="M0,0.775 L71.926,0.775 L71.926,72 L0,72 L0,0.775 Z"></path>
    </defs>
    <g id="Page-1" stroke="none" stroke-width="1" fill="none" fill-rule="evenodd" sketch:type="MSPage">
        <g id="screen2-copy-3" sketch:type="MSArtboardGroup" transform="translate(-221.000000, -19.000000)">
            <g id="logo" sketch:type="MSLayerGroup" transform="translate(221.000000, 19.000000)">
                <mask id="mask-2" sketch:name="Clip 2" fill="white">
                    <use xlink:href="#path-1"></use>
                </mask>
                <g id="Clip-2"></g>
                <path d="M35.9629,69.4007 C17.9339,69.4007 3.2089,55.1747 2.6269,37.4727 L26.5179,37.4727 L26.5179,55.9107 L29.1179,55.9107 L29.1179,47.1667 L42.1799,47.1667 L42.1799,55.9107 L44.7789,55.9107 L44.7789,37.4727 L69.2989,37.4727 C68.7169,55.1747 53.9919,69.4007 35.9629,69.4007 L35.9629,69.4007 Z M29.1179,34.8737 L29.1179,20.1987 L35.6489,27.3067 L42.1799,20.1987 L42.1799,34.8737 L29.1179,34.8737 Z M29.1179,37.4727 L42.1799,37.4727 L42.1799,44.5677 L29.1179,44.5677 L29.1179,37.4727 Z M35.9629,3.3747 C53.8469,3.3747 68.4849,17.3697 69.2879,34.8737 L44.7789,34.8737 L44.7789,13.5287 L35.6489,23.4647 L26.5179,13.5287 L26.5179,34.8737 L2.6379,34.8737 C3.4409,17.3697 18.0799,3.3747 35.9629,3.3747 L35.9629,3.3747 Z M35.9629,0.7757 C16.1329,0.7757 -9.99999993e-05,16.7507 -9.99999993e-05,36.3877 C-9.99999993e-05,56.0237 16.1329,71.9997 35.9629,71.9997 C55.7929,71.9997 71.9259,56.0237 71.9259,36.3877 C71.9259,16.7507 55.7929,0.7757 35.9629,0.7757 L35.9629,0.7757 Z" id="Fill-1" fill="#FE6602" sketch:type="MSShapeGroup" mask="url(#mask-2)"></path>
            </g>
        </g>
    </g>
</svg>